<svg xmlns="http://www.w3.org/2000/svg" xmlns:xlink="http://www.w3.org/1999/xlink" width="500" zoomAndPan="magnify" viewBox="0 0 375 74.999997" height="100" preserveAspectRatio="xMidYMid meet" version="1.0"><defs><g/></defs><g fill="#ff00ff" fill-opacity="1"><g transform="translate(2.377627, 63.758945)"><g><path d="M 2.597656 -15.527344 C 7.015625 -2.988281 14.554688 1.300781 23.714844 1.300781 C 31.640625 1.300781 38.269531 -2.921875 38.269531 -11.628906 C 38.269531 -19.621094 32.484375 -23.648438 21.441406 -31.769531 C 13.382812 -37.683594 9.617188 -40.023438 9.617188 -45.089844 C 9.617188 -49.378906 12.929688 -52.238281 18.515625 -52.238281 C 26.832031 -52.238281 30.210938 -45.675781 31.445312 -39.308594 L 36.644531 -41.257812 C 32.160156 -49.3125 26.507812 -53.277344 18.839844 -53.277344 C 11.304688 -53.277344 5.847656 -49.574219 5.847656 -42.816406 C 5.847656 -36.382812 9.746094 -33.394531 19.035156 -26.507812 C 28.78125 -19.101562 34.566406 -15.269531 34.566406 -9.550781 C 34.566406 -2.988281 30.082031 0.261719 24.105469 0.261719 C 15.527344 0.261719 9.097656 -7.277344 7.796875 -18.0625 Z M 2.597656 -15.527344 "/></g></g></g><g fill="#ff00ff" fill-opacity="1"><g transform="translate(43.236449, 63.758945)"><g><path d="M 34.628906 -11.628906 C 32.550781 -4.546875 28.199219 -0.261719 21.832031 -0.261719 C 13.515625 -0.261719 9.289062 -7.601562 9.289062 -15.722656 C 9.289062 -16.957031 9.355469 -18.191406 9.484375 -19.296875 L 33.914062 -19.296875 C 33.851562 -25.792969 28.71875 -31.964844 19.554688 -31.964844 C 10.785156 -31.964844 3.054688 -25.664062 3.054688 -15.332031 C 3.054688 -5.003906 10.589844 1.300781 20.269531 1.300781 C 28.652344 1.300781 33.460938 -3.832031 35.605469 -11.628906 Z M 19.492188 -30.925781 C 25.207031 -30.925781 27.871094 -26.25 27.871094 -20.269531 L 9.617188 -20.269531 C 10.71875 -27.027344 14.292969 -30.925781 19.492188 -30.925781 Z M 19.492188 -30.925781 "/></g></g></g><g fill="#ff00ff" fill-opacity="1"><g transform="translate(81.237097, 63.758945)"><g><path d="M 3.054688 -15.332031 C 3.054688 -4.871094 9.941406 1.300781 19.101562 1.300781 C 28.132812 1.300781 32.160156 -5.132812 34.175781 -11.824219 L 33.265625 -11.824219 C 31.316406 -5.585938 27.675781 -0.453125 20.855469 -0.453125 C 12.734375 -0.453125 9.289062 -7.796875 9.289062 -15.851562 C 9.289062 -25.273438 12.472656 -30.925781 19.554688 -30.925781 C 25.535156 -30.925781 26.898438 -26.574219 27.222656 -24.363281 C 27.808594 -21.308594 31.121094 -20.660156 32.550781 -23 C 31.121094 -27.417969 26.769531 -31.964844 19.296875 -31.964844 C 9.941406 -31.964844 3.054688 -25.726562 3.054688 -15.332031 Z M 3.054688 -15.332031 "/></g></g></g><g fill="#ff00ff" fill-opacity="1"><g transform="translate(117.808676, 63.758945)"><g><path d="M 26.441406 -30.667969 C 19.035156 -31.835938 15.269531 -27.9375 10.332031 -22.609375 C 10.394531 -25.078125 10.523438 -27.546875 10.851562 -30.667969 L 4.15625 -30.667969 C 4.679688 -25.792969 4.679688 -22.480469 4.679688 -18.453125 L 4.679688 -12.148438 C 4.679688 -8.1875 4.679688 -4.871094 4.15625 0 L 10.851562 0 C 10.332031 -4.871094 10.332031 -8.1875 10.332031 -12.148438 L 10.332031 -21.117188 C 16.632812 -27.546875 18.839844 -27.9375 21.960938 -26.832031 C 25.402344 -25.664062 27.15625 -27.808594 26.441406 -30.667969 Z M 26.441406 -30.667969 "/></g></g></g><g fill="#ff00ff" fill-opacity="1"><g transform="translate(146.000609, 63.758945)"><g><path d="M 34.628906 -11.628906 C 32.550781 -4.546875 28.199219 -0.261719 21.832031 -0.261719 C 13.515625 -0.261719 9.289062 -7.601562 9.289062 -15.722656 C 9.289062 -16.957031 9.355469 -18.191406 9.484375 -19.296875 L 33.914062 -19.296875 C 33.851562 -25.792969 28.71875 -31.964844 19.554688 -31.964844 C 10.785156 -31.964844 3.054688 -25.664062 3.054688 -15.332031 C 3.054688 -5.003906 10.589844 1.300781 20.269531 1.300781 C 28.652344 1.300781 33.460938 -3.832031 35.605469 -11.628906 Z M 19.492188 -30.925781 C 25.207031 -30.925781 27.871094 -26.25 27.871094 -20.269531 L 9.617188 -20.269531 C 10.71875 -27.027344 14.292969 -30.925781 19.492188 -30.925781 Z M 19.492188 -30.925781 "/></g></g></g><g fill="#ff00ff" fill-opacity="1"><g transform="translate(184.001257, 63.758945)"><g><path d="M 24.300781 -13.253906 C 22.871094 -3.3125 20.597656 0.0664062 17.542969 0.0664062 C 15.136719 0.0664062 13.773438 -1.820312 13.773438 -8.316406 L 13.773438 -29.625 L 23.128906 -29.625 L 23.128906 -30.667969 L 8.316406 -30.667969 C 14.164062 -32.941406 15.074219 -38.65625 15.074219 -44.117188 L 10.199219 -44.117188 C 10.199219 -37.097656 10.523438 -30.667969 1.949219 -30.667969 L 1.105469 -30.667969 L 1.105469 -29.625 L 8.121094 -29.625 L 8.121094 -9.03125 C 8.121094 -1.234375 10.71875 1.625 15.722656 1.625 C 20.597656 1.625 23.585938 -1.6875 25.207031 -13.253906 Z M 24.300781 -13.253906 "/></g></g></g><g fill="#ff00ff" fill-opacity="1"><g transform="translate(211.608573, 63.758945)"><g><path d="M 52.429688 -21.636719 C 49.574219 -8.902344 42.554688 -0.648438 31.1875 -0.648438 C 17.28125 -0.648438 10.914062 -12.863281 10.914062 -27.027344 C 10.914062 -40.933594 18.125 -52.238281 29.496094 -52.238281 C 37.75 -52.238281 42.230469 -45.609375 44.246094 -37.359375 L 50.742188 -39.113281 C 46.324219 -48.011719 39.566406 -53.277344 29.496094 -53.277344 C 15.203125 -53.277344 3.898438 -42.425781 3.898438 -26.636719 C 3.898438 -10.851562 13.382812 1.300781 29.5625 1.300781 C 42.945312 1.300781 50.351562 -7.796875 53.339844 -21.636719 Z M 52.429688 -21.636719 "/></g></g></g><g fill="#ff00ff" fill-opacity="1"><g transform="translate(267.537748, 63.758945)"><g><path d="M 33.460938 0 C 32.484375 -4.871094 32.484375 -8.1875 32.484375 -12.605469 L 32.484375 -22.480469 C 32.421875 -29.433594 27.871094 -31.964844 21.308594 -31.964844 C 14.878906 -31.964844 8.902344 -29.171875 4.613281 -26.183594 C 5.132812 -23 8.574219 -22.542969 10.589844 -25.015625 C 12.34375 -26.964844 14.292969 -30.925781 20.660156 -30.925781 C 24.753906 -30.925781 26.832031 -28.328125 26.832031 -23.648438 C 26.832031 -19.621094 23.128906 -18.582031 17.671875 -17.671875 C 10.914062 -16.566406 3.703125 -14.421875 3.703125 -7.210938 C 3.703125 -1.300781 8.902344 1.300781 14.292969 1.300781 C 21.375 1.300781 25.273438 -2.664062 26.832031 -7.601562 C 26.898438 -5.199219 27.027344 -3.183594 27.351562 0 Z M 16.761719 -0.648438 C 12.800781 -0.648438 9.941406 -3.183594 9.941406 -7.992188 C 9.941406 -12.863281 12.863281 -15.65625 18.648438 -16.890625 C 22.542969 -17.738281 25.402344 -18.257812 26.832031 -20.269531 L 26.832031 -13.382812 C 26.832031 -6.042969 22.871094 -0.648438 16.761719 -0.648438 Z M 16.761719 -0.648438 "/></g></g></g><g fill="#ff00ff" fill-opacity="1"><g transform="translate(304.693946, 63.758945)"><g><path d="M 26.441406 -30.667969 C 19.035156 -31.835938 15.269531 -27.9375 10.332031 -22.609375 C 10.394531 -25.078125 10.523438 -27.546875 10.851562 -30.667969 L 4.15625 -30.667969 C 4.679688 -25.792969 4.679688 -22.480469 4.679688 -18.453125 L 4.679688 -12.148438 C 4.679688 -8.1875 4.679688 -4.871094 4.15625 0 L 10.851562 0 C 10.332031 -4.871094 10.332031 -8.1875 10.332031 -12.148438 L 10.332031 -21.117188 C 16.632812 -27.546875 18.839844 -27.9375 21.960938 -26.832031 C 25.402344 -25.664062 27.15625 -27.808594 26.441406 -30.667969 Z M 26.441406 -30.667969 "/></g></g></g><g fill="#ff00ff" fill-opacity="1"><g transform="translate(332.885897, 63.758945)"><g><path d="M 37.035156 0 C 35.992188 -5.78125 35.992188 -8.1875 35.992188 -12.148438 L 35.992188 -51.976562 L 29.625 -51.976562 C 30.339844 -45.738281 30.339844 -43.335938 30.339844 -39.371094 L 30.339844 -25.207031 C 27.289062 -29.042969 22.804688 -31.964844 17.476562 -31.964844 C 10.136719 -31.964844 3.054688 -25.921875 3.054688 -15.332031 C 3.054688 -4.679688 9.617188 1.300781 17.933594 1.300781 C 24.753906 1.300781 28.71875 -2.859375 30.339844 -8.382812 C 30.40625 -5.523438 30.472656 -3.636719 30.925781 0 Z M 19.621094 -0.261719 C 12.214844 -0.261719 9.289062 -7.015625 9.289062 -15.332031 C 9.289062 -24.625 12.929688 -30.535156 19.035156 -30.535156 C 23.453125 -30.535156 27.675781 -27.417969 30.339844 -23.910156 L 30.339844 -14.554688 C 30.339844 -6.300781 26.441406 -0.261719 19.621094 -0.261719 Z M 19.621094 -0.261719 "/></g></g></g><g fill="#00ffff" fill-opacity="1"><g transform="translate(0.915634, 63.758945)"><g><path d="M 2.597656 -15.527344 C 7.015625 -2.988281 14.554688 1.300781 23.714844 1.300781 C 31.640625 1.300781 38.269531 -2.921875 38.269531 -11.628906 C 38.269531 -19.621094 32.484375 -23.648438 21.441406 -31.769531 C 13.382812 -37.683594 9.617188 -40.023438 9.617188 -45.089844 C 9.617188 -49.378906 12.929688 -52.238281 18.515625 -52.238281 C 26.832031 -52.238281 30.210938 -45.675781 31.445312 -39.308594 L 36.644531 -41.257812 C 32.160156 -49.3125 26.507812 -53.277344 18.839844 -53.277344 C 11.304688 -53.277344 5.847656 -49.574219 5.847656 -42.816406 C 5.847656 -36.382812 9.746094 -33.394531 19.035156 -26.507812 C 28.78125 -19.101562 34.566406 -15.269531 34.566406 -9.550781 C 34.566406 -2.988281 30.082031 0.261719 24.105469 0.261719 C 15.527344 0.261719 9.097656 -7.277344 7.796875 -18.0625 Z M 2.597656 -15.527344 "/></g></g></g><g fill="#00ffff" fill-opacity="1"><g transform="translate(41.774456, 63.758945)"><g><path d="M 34.628906 -11.628906 C 32.550781 -4.546875 28.199219 -0.261719 21.832031 -0.261719 C 13.515625 -0.261719 9.289062 -7.601562 9.289062 -15.722656 C 9.289062 -16.957031 9.355469 -18.191406 9.484375 -19.296875 L 33.914062 -19.296875 C 33.851562 -25.792969 28.71875 -31.964844 19.554688 -31.964844 C 10.785156 -31.964844 3.054688 -25.664062 3.054688 -15.332031 C 3.054688 -5.003906 10.589844 1.300781 20.269531 1.300781 C 28.652344 1.300781 33.460938 -3.832031 35.605469 -11.628906 Z M 19.492188 -30.925781 C 25.207031 -30.925781 27.871094 -26.25 27.871094 -20.269531 L 9.617188 -20.269531 C 10.71875 -27.027344 14.292969 -30.925781 19.492188 -30.925781 Z M 19.492188 -30.925781 "/></g></g></g><g fill="#00ffff" fill-opacity="1"><g transform="translate(79.775104, 63.758945)"><g><path d="M 3.054688 -15.332031 C 3.054688 -4.871094 9.941406 1.300781 19.101562 1.300781 C 28.132812 1.300781 32.160156 -5.132812 34.175781 -11.824219 L 33.265625 -11.824219 C 31.316406 -5.585938 27.675781 -0.453125 20.855469 -0.453125 C 12.734375 -0.453125 9.289062 -7.796875 9.289062 -15.851562 C 9.289062 -25.273438 12.472656 -30.925781 19.554688 -30.925781 C 25.535156 -30.925781 26.898438 -26.574219 27.222656 -24.363281 C 27.808594 -21.308594 31.121094 -20.660156 32.550781 -23 C 31.121094 -27.417969 26.769531 -31.964844 19.296875 -31.964844 C 9.941406 -31.964844 3.054688 -25.726562 3.054688 -15.332031 Z M 3.054688 -15.332031 "/></g></g></g><g fill="#00ffff" fill-opacity="1"><g transform="translate(116.346683, 63.758945)"><g><path d="M 26.441406 -30.667969 C 19.035156 -31.835938 15.269531 -27.9375 10.332031 -22.609375 C 10.394531 -25.078125 10.523438 -27.546875 10.851562 -30.667969 L 4.15625 -30.667969 C 4.679688 -25.792969 4.679688 -22.480469 4.679688 -18.453125 L 4.679688 -12.148438 C 4.679688 -8.1875 4.679688 -4.871094 4.15625 0 L 10.851562 0 C 10.332031 -4.871094 10.332031 -8.1875 10.332031 -12.148438 L 10.332031 -21.117188 C 16.632812 -27.546875 18.839844 -27.9375 21.960938 -26.832031 C 25.402344 -25.664062 27.15625 -27.808594 26.441406 -30.667969 Z M 26.441406 -30.667969 "/></g></g></g><g fill="#00ffff" fill-opacity="1"><g transform="translate(144.538617, 63.758945)"><g><path d="M 34.628906 -11.628906 C 32.550781 -4.546875 28.199219 -0.261719 21.832031 -0.261719 C 13.515625 -0.261719 9.289062 -7.601562 9.289062 -15.722656 C 9.289062 -16.957031 9.355469 -18.191406 9.484375 -19.296875 L 33.914062 -19.296875 C 33.851562 -25.792969 28.71875 -31.964844 19.554688 -31.964844 C 10.785156 -31.964844 3.054688 -25.664062 3.054688 -15.332031 C 3.054688 -5.003906 10.589844 1.300781 20.269531 1.300781 C 28.652344 1.300781 33.460938 -3.832031 35.605469 -11.628906 Z M 19.492188 -30.925781 C 25.207031 -30.925781 27.871094 -26.25 27.871094 -20.269531 L 9.617188 -20.269531 C 10.71875 -27.027344 14.292969 -30.925781 19.492188 -30.925781 Z M 19.492188 -30.925781 "/></g></g></g><g fill="#00ffff" fill-opacity="1"><g transform="translate(182.539265, 63.758945)"><g><path d="M 24.300781 -13.253906 C 22.871094 -3.3125 20.597656 0.0664062 17.542969 0.0664062 C 15.136719 0.0664062 13.773438 -1.820312 13.773438 -8.316406 L 13.773438 -29.625 L 23.128906 -29.625 L 23.128906 -30.667969 L 8.316406 -30.667969 C 14.164062 -32.941406 15.074219 -38.65625 15.074219 -44.117188 L 10.199219 -44.117188 C 10.199219 -37.097656 10.523438 -30.667969 1.949219 -30.667969 L 1.105469 -30.667969 L 1.105469 -29.625 L 8.121094 -29.625 L 8.121094 -9.03125 C 8.121094 -1.234375 10.71875 1.625 15.722656 1.625 C 20.597656 1.625 23.585938 -1.6875 25.207031 -13.253906 Z M 24.300781 -13.253906 "/></g></g></g><g fill="#00ffff" fill-opacity="1"><g transform="translate(210.146581, 63.758945)"><g><path d="M 52.429688 -21.636719 C 49.574219 -8.902344 42.554688 -0.648438 31.1875 -0.648438 C 17.28125 -0.648438 10.914062 -12.863281 10.914062 -27.027344 C 10.914062 -40.933594 18.125 -52.238281 29.496094 -52.238281 C 37.75 -52.238281 42.230469 -45.609375 44.246094 -37.359375 L 50.742188 -39.113281 C 46.324219 -48.011719 39.566406 -53.277344 29.496094 -53.277344 C 15.203125 -53.277344 3.898438 -42.425781 3.898438 -26.636719 C 3.898438 -10.851562 13.382812 1.300781 29.5625 1.300781 C 42.945312 1.300781 50.351562 -7.796875 53.339844 -21.636719 Z M 52.429688 -21.636719 "/></g></g></g><g fill="#00ffff" fill-opacity="1"><g transform="translate(266.075756, 63.758945)"><g><path d="M 33.460938 0 C 32.484375 -4.871094 32.484375 -8.1875 32.484375 -12.605469 L 32.484375 -22.480469 C 32.421875 -29.433594 27.871094 -31.964844 21.308594 -31.964844 C 14.878906 -31.964844 8.902344 -29.171875 4.613281 -26.183594 C 5.132812 -23 8.574219 -22.542969 10.589844 -25.015625 C 12.34375 -26.964844 14.292969 -30.925781 20.660156 -30.925781 C 24.753906 -30.925781 26.832031 -28.328125 26.832031 -23.648438 C 26.832031 -19.621094 23.128906 -18.582031 17.671875 -17.671875 C 10.914062 -16.566406 3.703125 -14.421875 3.703125 -7.210938 C 3.703125 -1.300781 8.902344 1.300781 14.292969 1.300781 C 21.375 1.300781 25.273438 -2.664062 26.832031 -7.601562 C 26.898438 -5.199219 27.027344 -3.183594 27.351562 0 Z M 16.761719 -0.648438 C 12.800781 -0.648438 9.941406 -3.183594 9.941406 -7.992188 C 9.941406 -12.863281 12.863281 -15.65625 18.648438 -16.890625 C 22.542969 -17.738281 25.402344 -18.257812 26.832031 -20.269531 L 26.832031 -13.382812 C 26.832031 -6.042969 22.871094 -0.648438 16.761719 -0.648438 Z M 16.761719 -0.648438 "/></g></g></g><g fill="#00ffff" fill-opacity="1"><g transform="translate(303.231953, 63.758945)"><g><path d="M 26.441406 -30.667969 C 19.035156 -31.835938 15.269531 -27.9375 10.332031 -22.609375 C 10.394531 -25.078125 10.523438 -27.546875 10.851562 -30.667969 L 4.15625 -30.667969 C 4.679688 -25.792969 4.679688 -22.480469 4.679688 -18.453125 L 4.679688 -12.148438 C 4.679688 -8.1875 4.679688 -4.871094 4.15625 0 L 10.851562 0 C 10.332031 -4.871094 10.332031 -8.1875 10.332031 -12.148438 L 10.332031 -21.117188 C 16.632812 -27.546875 18.839844 -27.9375 21.960938 -26.832031 C 25.402344 -25.664062 27.15625 -27.808594 26.441406 -30.667969 Z M 26.441406 -30.667969 "/></g></g></g><g fill="#00ffff" fill-opacity="1"><g transform="translate(331.423904, 63.758945)"><g><path d="M 37.035156 0 C 35.992188 -5.78125 35.992188 -8.1875 35.992188 -12.148438 L 35.992188 -51.976562 L 29.625 -51.976562 C 30.339844 -45.738281 30.339844 -43.335938 30.339844 -39.371094 L 30.339844 -25.207031 C 27.289062 -29.042969 22.804688 -31.964844 17.476562 -31.964844 C 10.136719 -31.964844 3.054688 -25.921875 3.054688 -15.332031 C 3.054688 -4.679688 9.617188 1.300781 17.933594 1.300781 C 24.753906 1.300781 28.71875 -2.859375 30.339844 -8.382812 C 30.40625 -5.523438 30.472656 -3.636719 30.925781 0 Z M 19.621094 -0.261719 C 12.214844 -0.261719 9.289062 -7.015625 9.289062 -15.332031 C 9.289062 -24.625 12.929688 -30.535156 19.035156 -30.535156 C 23.453125 -30.535156 27.675781 -27.417969 30.339844 -23.910156 L 30.339844 -14.554688 C 30.339844 -6.300781 26.441406 -0.261719 19.621094 -0.261719 Z M 19.621094 -0.261719 "/></g></g></g><g fill="#f4f4f4" fill-opacity="1"><g transform="translate(1.646631, 63.758945)"><g><path d="M 2.597656 -15.527344 C 7.015625 -2.988281 14.554688 1.300781 23.714844 1.300781 C 31.640625 1.300781 38.269531 -2.921875 38.269531 -11.628906 C 38.269531 -19.621094 32.484375 -23.648438 21.441406 -31.769531 C 13.382812 -37.683594 9.617188 -40.023438 9.617188 -45.089844 C 9.617188 -49.378906 12.929688 -52.238281 18.515625 -52.238281 C 26.832031 -52.238281 30.210938 -45.675781 31.445312 -39.308594 L 36.644531 -41.257812 C 32.160156 -49.3125 26.507812 -53.277344 18.839844 -53.277344 C 11.304688 -53.277344 5.847656 -49.574219 5.847656 -42.816406 C 5.847656 -36.382812 9.746094 -33.394531 19.035156 -26.507812 C 28.78125 -19.101562 34.566406 -15.269531 34.566406 -9.550781 C 34.566406 -2.988281 30.082031 0.261719 24.105469 0.261719 C 15.527344 0.261719 9.097656 -7.277344 7.796875 -18.0625 Z M 2.597656 -15.527344 "/></g></g></g><g fill="#f4f4f4" fill-opacity="1"><g transform="translate(42.505453, 63.758945)"><g><path d="M 34.628906 -11.628906 C 32.550781 -4.546875 28.199219 -0.261719 21.832031 -0.261719 C 13.515625 -0.261719 9.289062 -7.601562 9.289062 -15.722656 C 9.289062 -16.957031 9.355469 -18.191406 9.484375 -19.296875 L 33.914062 -19.296875 C 33.851562 -25.792969 28.71875 -31.964844 19.554688 -31.964844 C 10.785156 -31.964844 3.054688 -25.664062 3.054688 -15.332031 C 3.054688 -5.003906 10.589844 1.300781 20.269531 1.300781 C 28.652344 1.300781 33.460938 -3.832031 35.605469 -11.628906 Z M 19.492188 -30.925781 C 25.207031 -30.925781 27.871094 -26.25 27.871094 -20.269531 L 9.617188 -20.269531 C 10.71875 -27.027344 14.292969 -30.925781 19.492188 -30.925781 Z M 19.492188 -30.925781 "/></g></g></g><g fill="#f4f4f4" fill-opacity="1"><g transform="translate(80.506101, 63.758945)"><g><path d="M 3.054688 -15.332031 C 3.054688 -4.871094 9.941406 1.300781 19.101562 1.300781 C 28.132812 1.300781 32.160156 -5.132812 34.175781 -11.824219 L 33.265625 -11.824219 C 31.316406 -5.585938 27.675781 -0.453125 20.855469 -0.453125 C 12.734375 -0.453125 9.289062 -7.796875 9.289062 -15.851562 C 9.289062 -25.273438 12.472656 -30.925781 19.554688 -30.925781 C 25.535156 -30.925781 26.898438 -26.574219 27.222656 -24.363281 C 27.808594 -21.308594 31.121094 -20.660156 32.550781 -23 C 31.121094 -27.417969 26.769531 -31.964844 19.296875 -31.964844 C 9.941406 -31.964844 3.054688 -25.726562 3.054688 -15.332031 Z M 3.054688 -15.332031 "/></g></g></g><g fill="#f4f4f4" fill-opacity="1"><g transform="translate(117.077679, 63.758945)"><g><path d="M 26.441406 -30.667969 C 19.035156 -31.835938 15.269531 -27.9375 10.332031 -22.609375 C 10.394531 -25.078125 10.523438 -27.546875 10.851562 -30.667969 L 4.15625 -30.667969 C 4.679688 -25.792969 4.679688 -22.480469 4.679688 -18.453125 L 4.679688 -12.148438 C 4.679688 -8.1875 4.679688 -4.871094 4.15625 0 L 10.851562 0 C 10.332031 -4.871094 10.332031 -8.1875 10.332031 -12.148438 L 10.332031 -21.117188 C 16.632812 -27.546875 18.839844 -27.9375 21.960938 -26.832031 C 25.402344 -25.664062 27.15625 -27.808594 26.441406 -30.667969 Z M 26.441406 -30.667969 "/></g></g></g><g fill="#f4f4f4" fill-opacity="1"><g transform="translate(145.269613, 63.758945)"><g><path d="M 34.628906 -11.628906 C 32.550781 -4.546875 28.199219 -0.261719 21.832031 -0.261719 C 13.515625 -0.261719 9.289062 -7.601562 9.289062 -15.722656 C 9.289062 -16.957031 9.355469 -18.191406 9.484375 -19.296875 L 33.914062 -19.296875 C 33.851562 -25.792969 28.71875 -31.964844 19.554688 -31.964844 C 10.785156 -31.964844 3.054688 -25.664062 3.054688 -15.332031 C 3.054688 -5.003906 10.589844 1.300781 20.269531 1.300781 C 28.652344 1.300781 33.460938 -3.832031 35.605469 -11.628906 Z M 19.492188 -30.925781 C 25.207031 -30.925781 27.871094 -26.25 27.871094 -20.269531 L 9.617188 -20.269531 C 10.71875 -27.027344 14.292969 -30.925781 19.492188 -30.925781 Z M 19.492188 -30.925781 "/></g></g></g><g fill="#f4f4f4" fill-opacity="1"><g transform="translate(183.270261, 63.758945)"><g><path d="M 24.300781 -13.253906 C 22.871094 -3.3125 20.597656 0.0664062 17.542969 0.0664062 C 15.136719 0.0664062 13.773438 -1.820312 13.773438 -8.316406 L 13.773438 -29.625 L 23.128906 -29.625 L 23.128906 -30.667969 L 8.316406 -30.667969 C 14.164062 -32.941406 15.074219 -38.65625 15.074219 -44.117188 L 10.199219 -44.117188 C 10.199219 -37.097656 10.523438 -30.667969 1.949219 -30.667969 L 1.105469 -30.667969 L 1.105469 -29.625 L 8.121094 -29.625 L 8.121094 -9.03125 C 8.121094 -1.234375 10.71875 1.625 15.722656 1.625 C 20.597656 1.625 23.585938 -1.6875 25.207031 -13.253906 Z M 24.300781 -13.253906 "/></g></g></g><g fill="#f4f4f4" fill-opacity="1"><g transform="translate(210.877577, 63.758945)"><g><path d="M 52.429688 -21.636719 C 49.574219 -8.902344 42.554688 -0.648438 31.1875 -0.648438 C 17.28125 -0.648438 10.914062 -12.863281 10.914062 -27.027344 C 10.914062 -40.933594 18.125 -52.238281 29.496094 -52.238281 C 37.75 -52.238281 42.230469 -45.609375 44.246094 -37.359375 L 50.742188 -39.113281 C 46.324219 -48.011719 39.566406 -53.277344 29.496094 -53.277344 C 15.203125 -53.277344 3.898438 -42.425781 3.898438 -26.636719 C 3.898438 -10.851562 13.382812 1.300781 29.5625 1.300781 C 42.945312 1.300781 50.351562 -7.796875 53.339844 -21.636719 Z M 52.429688 -21.636719 "/></g></g></g><g fill="#f4f4f4" fill-opacity="1"><g transform="translate(266.806752, 63.758945)"><g><path d="M 33.460938 0 C 32.484375 -4.871094 32.484375 -8.1875 32.484375 -12.605469 L 32.484375 -22.480469 C 32.421875 -29.433594 27.871094 -31.964844 21.308594 -31.964844 C 14.878906 -31.964844 8.902344 -29.171875 4.613281 -26.183594 C 5.132812 -23 8.574219 -22.542969 10.589844 -25.015625 C 12.34375 -26.964844 14.292969 -30.925781 20.660156 -30.925781 C 24.753906 -30.925781 26.832031 -28.328125 26.832031 -23.648438 C 26.832031 -19.621094 23.128906 -18.582031 17.671875 -17.671875 C 10.914062 -16.566406 3.703125 -14.421875 3.703125 -7.210938 C 3.703125 -1.300781 8.902344 1.300781 14.292969 1.300781 C 21.375 1.300781 25.273438 -2.664062 26.832031 -7.601562 C 26.898438 -5.199219 27.027344 -3.183594 27.351562 0 Z M 16.761719 -0.648438 C 12.800781 -0.648438 9.941406 -3.183594 9.941406 -7.992188 C 9.941406 -12.863281 12.863281 -15.65625 18.648438 -16.890625 C 22.542969 -17.738281 25.402344 -18.257812 26.832031 -20.269531 L 26.832031 -13.382812 C 26.832031 -6.042969 22.871094 -0.648438 16.761719 -0.648438 Z M 16.761719 -0.648438 "/></g></g></g><g fill="#f4f4f4" fill-opacity="1"><g transform="translate(303.962949, 63.758945)"><g><path d="M 26.441406 -30.667969 C 19.035156 -31.835938 15.269531 -27.9375 10.332031 -22.609375 C 10.394531 -25.078125 10.523438 -27.546875 10.851562 -30.667969 L 4.15625 -30.667969 C 4.679688 -25.792969 4.679688 -22.480469 4.679688 -18.453125 L 4.679688 -12.148438 C 4.679688 -8.1875 4.679688 -4.871094 4.15625 0 L 10.851562 0 C 10.332031 -4.871094 10.332031 -8.1875 10.332031 -12.148438 L 10.332031 -21.117188 C 16.632812 -27.546875 18.839844 -27.9375 21.960938 -26.832031 C 25.402344 -25.664062 27.15625 -27.808594 26.441406 -30.667969 Z M 26.441406 -30.667969 "/></g></g></g><g fill="#f4f4f4" fill-opacity="1"><g transform="translate(332.154901, 63.758945)"><g><path d="M 37.035156 0 C 35.992188 -5.78125 35.992188 -8.1875 35.992188 -12.148438 L 35.992188 -51.976562 L 29.625 -51.976562 C 30.339844 -45.738281 30.339844 -43.335938 30.339844 -39.371094 L 30.339844 -25.207031 C 27.289062 -29.042969 22.804688 -31.964844 17.476562 -31.964844 C 10.136719 -31.964844 3.054688 -25.921875 3.054688 -15.332031 C 3.054688 -4.679688 9.617188 1.300781 17.933594 1.300781 C 24.753906 1.300781 28.71875 -2.859375 30.339844 -8.382812 C 30.40625 -5.523438 30.472656 -3.636719 30.925781 0 Z M 19.621094 -0.261719 C 12.214844 -0.261719 9.289062 -7.015625 9.289062 -15.332031 C 9.289062 -24.625 12.929688 -30.535156 19.035156 -30.535156 C 23.453125 -30.535156 27.675781 -27.417969 30.339844 -23.910156 L 30.339844 -14.554688 C 30.339844 -6.300781 26.441406 -0.261719 19.621094 -0.261719 Z M 19.621094 -0.261719 "/></g></g></g></svg>