<svg xmlns="http://www.w3.org/2000/svg" xmlns:xlink="http://www.w3.org/1999/xlink" width="480" zoomAndPan="magnify" viewBox="0 0 360 44.999999" height="60" preserveAspectRatio="xMidYMid meet" version="1.0"><defs><g/></defs><path fill="#000000" d="M 7.429688 6.34375 L 7.429688 39.34375 L 41.175781 39.34375 L 41.175781 6.34375 L 7.429688 6.34375 M 40.253906 38.433594 L 8.332031 38.433594 L 8.332031 7.234375 L 40.253906 7.234375 L 40.253906 38.433594 " fill-opacity="1" fill-rule="nonzero"/><path fill="#000000" d="M 44.59375 6.34375 L 44.59375 39.34375 L 78.34375 39.34375 L 78.34375 6.34375 L 44.59375 6.34375 M 77.421875 38.433594 L 45.496094 38.433594 L 45.496094 7.234375 L 77.421875 7.234375 L 77.421875 38.433594 " fill-opacity="1" fill-rule="nonzero"/><path fill="#f4f4f4" d="M 8.625 7.398438 L 39.375 7.398438 L 39.375 38.148438 L 8.625 38.148438 L 8.625 7.398438 " fill-opacity="1" fill-rule="nonzero"/><g fill="#ff00ff" fill-opacity="1"><g transform="translate(12.420003, 34.890337)"><g><path d="M 1.21875 -6.945312 C 4.234375 -1.402344 7.980469 0.609375 13.1875 0.609375 C 17.328125 0.609375 20.921875 -1.460938 20.921875 -5.910156 C 20.921875 -10.234375 17.9375 -12.242188 11.878906 -16.109375 C 7.1875 -19.066406 6.058594 -19.949219 6.058594 -21.59375 C 6.058594 -23.054688 7.402344 -24.242188 9.714844 -24.242188 C 13.703125 -24.242188 15.257812 -20.679688 16.292969 -17.144531 L 20.527344 -18.972656 C 17.421875 -23.328125 14.132812 -24.972656 10.082031 -24.972656 C 6.058594 -24.972656 2.617188 -23.117188 2.617188 -19.339844 C 2.617188 -15.867188 4.691406 -14.070312 9.988281 -10.566406 C 15.074219 -7.1875 17.480469 -5.664062 17.480469 -3.503906 C 17.480469 -1.429688 16.082031 -0.121094 13.644531 -0.121094 C 9.5625 -0.121094 6.667969 -4.140625 5.480469 -9.410156 Z M 1.21875 -6.945312 "/></g></g></g><g fill="#00ffff" fill-opacity="1"><g transform="translate(11.430179, 34.890337)"><g><path d="M 1.21875 -6.945312 C 4.234375 -1.402344 7.980469 0.609375 13.1875 0.609375 C 17.328125 0.609375 20.921875 -1.460938 20.921875 -5.910156 C 20.921875 -10.234375 17.9375 -12.242188 11.878906 -16.109375 C 7.1875 -19.066406 6.058594 -19.949219 6.058594 -21.59375 C 6.058594 -23.054688 7.402344 -24.242188 9.714844 -24.242188 C 13.703125 -24.242188 15.257812 -20.679688 16.292969 -17.144531 L 20.527344 -18.972656 C 17.421875 -23.328125 14.132812 -24.972656 10.082031 -24.972656 C 6.058594 -24.972656 2.617188 -23.117188 2.617188 -19.339844 C 2.617188 -15.867188 4.691406 -14.070312 9.988281 -10.566406 C 15.074219 -7.1875 17.480469 -5.664062 17.480469 -3.503906 C 17.480469 -1.429688 16.082031 -0.121094 13.644531 -0.121094 C 9.5625 -0.121094 6.667969 -4.140625 5.480469 -9.410156 Z M 1.21875 -6.945312 "/></g></g></g><g fill="#000000" fill-opacity="1"><g transform="translate(11.925091, 34.890337)"><g><path d="M 1.21875 -6.945312 C 4.234375 -1.402344 7.980469 0.609375 13.1875 0.609375 C 17.328125 0.609375 20.921875 -1.460938 20.921875 -5.910156 C 20.921875 -10.234375 17.9375 -12.242188 11.878906 -16.109375 C 7.1875 -19.066406 6.058594 -19.949219 6.058594 -21.59375 C 6.058594 -23.054688 7.402344 -24.242188 9.714844 -24.242188 C 13.703125 -24.242188 15.257812 -20.679688 16.292969 -17.144531 L 20.527344 -18.972656 C 17.421875 -23.328125 14.132812 -24.972656 10.082031 -24.972656 C 6.058594 -24.972656 2.617188 -23.117188 2.617188 -19.339844 C 2.617188 -15.867188 4.691406 -14.070312 9.988281 -10.566406 C 15.074219 -7.1875 17.480469 -5.664062 17.480469 -3.503906 C 17.480469 -1.429688 16.082031 -0.121094 13.644531 -0.121094 C 9.5625 -0.121094 6.667969 -4.140625 5.480469 -9.410156 Z M 1.21875 -6.945312 "/></g></g></g><g fill="#ff00ff" fill-opacity="1"><g transform="translate(34.549199, 34.890337)"><g/></g></g><g fill="#00ffff" fill-opacity="1"><g transform="translate(33.559375, 34.890337)"><g/></g></g><g fill="#000000" fill-opacity="1"><g transform="translate(34.054287, 34.890337)"><g/></g></g><path fill="#f4f4f4" d="M 45.824219 7.417969 L 76.574219 7.417969 L 76.574219 38.167969 L 45.824219 38.167969 L 45.824219 7.417969 " fill-opacity="1" fill-rule="nonzero"/><g fill="#ff00ff" fill-opacity="1"><g transform="translate(47.740571, 34.890337)"><g><path d="M 26.375 -10.476562 C 24.941406 -4.292969 21.441406 -1.21875 16.933594 -1.21875 C 11.117188 -1.21875 8.589844 -6.425781 8.589844 -12.914062 C 8.589844 -19.1875 10.78125 -24.242188 14.953125 -24.242188 C 18.152344 -24.242188 19.703125 -20.769531 20.28125 -15.988281 L 26.070312 -17.601562 C 23.96875 -22.078125 20.3125 -24.972656 14.953125 -24.972656 C 7.828125 -24.972656 1.828125 -20.40625 1.828125 -12.488281 C 1.828125 -4.566406 7.097656 0.609375 15.105469 0.609375 C 21.621094 0.609375 25.339844 -3.53125 27.011719 -10.476562 Z M 26.375 -10.476562 "/></g></g></g><g fill="#00ffff" fill-opacity="1"><g transform="translate(46.750746, 34.890337)"><g><path d="M 26.375 -10.476562 C 24.941406 -4.292969 21.441406 -1.21875 16.933594 -1.21875 C 11.117188 -1.21875 8.589844 -6.425781 8.589844 -12.914062 C 8.589844 -19.1875 10.78125 -24.242188 14.953125 -24.242188 C 18.152344 -24.242188 19.703125 -20.769531 20.28125 -15.988281 L 26.070312 -17.601562 C 23.96875 -22.078125 20.3125 -24.972656 14.953125 -24.972656 C 7.828125 -24.972656 1.828125 -20.40625 1.828125 -12.488281 C 1.828125 -4.566406 7.097656 0.609375 15.105469 0.609375 C 21.621094 0.609375 25.339844 -3.53125 27.011719 -10.476562 Z M 26.375 -10.476562 "/></g></g></g><g fill="#000000" fill-opacity="1"><g transform="translate(47.245657, 34.890337)"><g><path d="M 26.375 -10.476562 C 24.941406 -4.292969 21.441406 -1.21875 16.933594 -1.21875 C 11.117188 -1.21875 8.589844 -6.425781 8.589844 -12.914062 C 8.589844 -19.1875 10.78125 -24.242188 14.953125 -24.242188 C 18.152344 -24.242188 19.703125 -20.769531 20.28125 -15.988281 L 26.070312 -17.601562 C 23.96875 -22.078125 20.3125 -24.972656 14.953125 -24.972656 C 7.828125 -24.972656 1.828125 -20.40625 1.828125 -12.488281 C 1.828125 -4.566406 7.097656 0.609375 15.105469 0.609375 C 21.621094 0.609375 25.339844 -3.53125 27.011719 -10.476562 Z M 26.375 -10.476562 "/></g></g></g><g fill="#ff00ff" fill-opacity="1"><g transform="translate(92.116371, 42.018601)"><g><path d="M 1.867188 -11.164062 C 5.042969 -2.148438 10.460938 0.933594 17.046875 0.933594 C 22.746094 0.933594 27.511719 -2.101562 27.511719 -8.359375 C 27.511719 -14.105469 23.355469 -17 15.414062 -22.839844 C 9.621094 -27.089844 6.914062 -28.773438 6.914062 -32.414062 C 6.914062 -35.5 9.296875 -37.554688 13.3125 -37.554688 C 19.289062 -37.554688 21.71875 -32.835938 22.605469 -28.257812 L 26.34375 -29.660156 C 23.121094 -35.453125 19.058594 -38.300781 13.546875 -38.300781 C 8.128906 -38.300781 4.203125 -35.636719 4.203125 -30.78125 C 4.203125 -26.15625 7.007812 -24.007812 13.6875 -19.058594 C 20.691406 -13.730469 24.847656 -10.976562 24.847656 -6.867188 C 24.847656 -2.148438 21.625 0.1875 17.328125 0.1875 C 11.164062 0.1875 6.539062 -5.230469 5.605469 -12.984375 Z M 1.867188 -11.164062 "/></g></g></g><g fill="#ff00ff" fill-opacity="1"><g transform="translate(121.490369, 42.018601)"><g><path d="M 24.894531 -8.359375 C 23.402344 -3.269531 20.273438 -0.1875 15.695312 -0.1875 C 9.714844 -0.1875 6.679688 -5.464844 6.679688 -11.304688 C 6.679688 -12.191406 6.726562 -13.078125 6.820312 -13.871094 L 24.382812 -13.871094 C 24.335938 -18.542969 20.644531 -22.980469 14.058594 -22.980469 C 7.753906 -22.980469 2.195312 -18.449219 2.195312 -11.023438 C 2.195312 -3.597656 7.613281 0.933594 14.574219 0.933594 C 20.597656 0.933594 24.054688 -2.753906 25.597656 -8.359375 Z M 14.011719 -22.234375 C 18.121094 -22.234375 20.039062 -18.871094 20.039062 -14.574219 L 6.914062 -14.574219 C 7.707031 -19.429688 10.277344 -22.234375 14.011719 -22.234375 Z M 14.011719 -22.234375 "/></g></g></g><g fill="#ff00ff" fill-opacity="1"><g transform="translate(148.809585, 42.018601)"><g><path d="M 2.195312 -11.023438 C 2.195312 -3.503906 7.144531 0.933594 13.730469 0.933594 C 20.226562 0.933594 23.121094 -3.691406 24.570312 -8.5 L 23.914062 -8.5 C 22.511719 -4.015625 19.898438 -0.328125 14.992188 -0.328125 C 9.15625 -0.328125 6.679688 -5.605469 6.679688 -11.398438 C 6.679688 -18.167969 8.96875 -22.234375 14.058594 -22.234375 C 18.355469 -22.234375 19.335938 -19.105469 19.570312 -17.515625 C 19.992188 -15.320312 22.375 -14.851562 23.402344 -16.535156 C 22.375 -19.710938 19.242188 -22.980469 13.871094 -22.980469 C 7.144531 -22.980469 2.195312 -18.496094 2.195312 -11.023438 Z M 2.195312 -11.023438 "/></g></g></g><g fill="#ff00ff" fill-opacity="1"><g transform="translate(175.101421, 42.018601)"><g><path d="M 19.011719 -22.046875 C 13.6875 -22.886719 10.976562 -20.085938 7.425781 -16.253906 C 7.472656 -18.03125 7.566406 -19.804688 7.800781 -22.046875 L 2.988281 -22.046875 C 3.363281 -18.542969 3.363281 -16.160156 3.363281 -13.265625 L 3.363281 -8.734375 C 3.363281 -5.886719 3.363281 -3.503906 2.988281 0 L 7.800781 0 C 7.425781 -3.503906 7.425781 -5.886719 7.425781 -8.734375 L 7.425781 -15.179688 C 11.957031 -19.804688 13.546875 -20.085938 15.789062 -19.289062 C 18.261719 -18.449219 19.523438 -19.992188 19.011719 -22.046875 Z M 19.011719 -22.046875 "/></g></g></g><g fill="#ff00ff" fill-opacity="1"><g transform="translate(195.36901, 42.018601)"><g><path d="M 24.894531 -8.359375 C 23.402344 -3.269531 20.273438 -0.1875 15.695312 -0.1875 C 9.714844 -0.1875 6.679688 -5.464844 6.679688 -11.304688 C 6.679688 -12.191406 6.726562 -13.078125 6.820312 -13.871094 L 24.382812 -13.871094 C 24.335938 -18.542969 20.644531 -22.980469 14.058594 -22.980469 C 7.753906 -22.980469 2.195312 -18.449219 2.195312 -11.023438 C 2.195312 -3.597656 7.613281 0.933594 14.574219 0.933594 C 20.597656 0.933594 24.054688 -2.753906 25.597656 -8.359375 Z M 14.011719 -22.234375 C 18.121094 -22.234375 20.039062 -18.871094 20.039062 -14.574219 L 6.914062 -14.574219 C 7.707031 -19.429688 10.277344 -22.234375 14.011719 -22.234375 Z M 14.011719 -22.234375 "/></g></g></g><g fill="#ff00ff" fill-opacity="1"><g transform="translate(222.688225, 42.018601)"><g><path d="M 17.46875 -9.527344 C 16.441406 -2.382812 14.804688 0.046875 12.609375 0.046875 C 10.882812 0.046875 9.902344 -1.308594 9.902344 -5.980469 L 9.902344 -21.300781 L 16.628906 -21.300781 L 16.628906 -22.046875 L 5.980469 -22.046875 C 10.183594 -23.679688 10.835938 -27.792969 10.835938 -31.714844 L 7.332031 -31.714844 C 7.332031 -26.671875 7.566406 -22.046875 1.402344 -22.046875 L 0.792969 -22.046875 L 0.792969 -21.300781 L 5.839844 -21.300781 L 5.839844 -6.492188 C 5.839844 -0.886719 7.707031 1.167969 11.304688 1.167969 C 14.804688 1.167969 16.957031 -1.214844 18.121094 -9.527344 Z M 17.46875 -9.527344 "/></g></g></g><g fill="#ff00ff" fill-opacity="1"><g transform="translate(242.535524, 42.018601)"><g><path d="M 37.695312 -15.554688 C 35.636719 -6.398438 30.59375 -0.46875 22.421875 -0.46875 C 12.425781 -0.46875 7.847656 -9.25 7.847656 -19.429688 C 7.847656 -29.425781 13.03125 -37.554688 21.207031 -37.554688 C 27.136719 -37.554688 30.359375 -32.789062 31.808594 -26.855469 L 36.480469 -28.117188 C 33.304688 -34.519531 28.445312 -38.300781 21.207031 -38.300781 C 10.929688 -38.300781 2.800781 -30.5 2.800781 -19.152344 C 2.800781 -7.800781 9.621094 0.933594 21.253906 0.933594 C 30.875 0.933594 36.199219 -5.605469 38.347656 -15.554688 Z M 37.695312 -15.554688 "/></g></g></g><g fill="#ff00ff" fill-opacity="1"><g transform="translate(282.743816, 42.018601)"><g><path d="M 24.054688 0 C 23.355469 -3.503906 23.355469 -5.886719 23.355469 -9.0625 L 23.355469 -16.160156 C 23.308594 -21.160156 20.039062 -22.980469 15.320312 -22.980469 C 10.695312 -22.980469 6.398438 -20.972656 3.316406 -18.824219 C 3.691406 -16.535156 6.164062 -16.207031 7.613281 -17.984375 C 8.875 -19.382812 10.277344 -22.234375 14.851562 -22.234375 C 17.796875 -22.234375 19.289062 -20.363281 19.289062 -17 C 19.289062 -14.105469 16.628906 -13.359375 12.703125 -12.703125 C 7.847656 -11.910156 2.664062 -10.371094 2.664062 -5.183594 C 2.664062 -0.933594 6.398438 0.933594 10.277344 0.933594 C 15.367188 0.933594 18.167969 -1.914062 19.289062 -5.464844 C 19.335938 -3.738281 19.429688 -2.289062 19.664062 0 Z M 12.050781 -0.46875 C 9.203125 -0.46875 7.144531 -2.289062 7.144531 -5.746094 C 7.144531 -9.25 9.25 -11.257812 13.40625 -12.144531 C 16.207031 -12.75 18.261719 -13.125 19.289062 -14.574219 L 19.289062 -9.621094 C 19.289062 -4.34375 16.441406 -0.46875 12.050781 -0.46875 Z M 12.050781 -0.46875 "/></g></g></g><g fill="#ff00ff" fill-opacity="1"><g transform="translate(309.455944, 42.018601)"><g><path d="M 19.011719 -22.046875 C 13.6875 -22.886719 10.976562 -20.085938 7.425781 -16.253906 C 7.472656 -18.03125 7.566406 -19.804688 7.800781 -22.046875 L 2.988281 -22.046875 C 3.363281 -18.542969 3.363281 -16.160156 3.363281 -13.265625 L 3.363281 -8.734375 C 3.363281 -5.886719 3.363281 -3.503906 2.988281 0 L 7.800781 0 C 7.425781 -3.503906 7.425781 -5.886719 7.425781 -8.734375 L 7.425781 -15.179688 C 11.957031 -19.804688 13.546875 -20.085938 15.789062 -19.289062 C 18.261719 -18.449219 19.523438 -19.992188 19.011719 -22.046875 Z M 19.011719 -22.046875 "/></g></g></g><g fill="#ff00ff" fill-opacity="1"><g transform="translate(329.723545, 42.018601)"><g><path d="M 26.625 0 C 25.875 -4.15625 25.875 -5.886719 25.875 -8.734375 L 25.875 -37.367188 L 21.300781 -37.367188 C 21.8125 -32.882812 21.8125 -31.15625 21.8125 -28.304688 L 21.8125 -18.121094 C 19.617188 -20.878906 16.394531 -22.980469 12.566406 -22.980469 C 7.285156 -22.980469 2.195312 -18.636719 2.195312 -11.023438 C 2.195312 -3.363281 6.914062 0.933594 12.890625 0.933594 C 17.796875 0.933594 20.644531 -2.054688 21.8125 -6.027344 C 21.859375 -3.96875 21.90625 -2.617188 22.234375 0 Z M 14.105469 -0.1875 C 8.78125 -0.1875 6.679688 -5.042969 6.679688 -11.023438 C 6.679688 -17.703125 9.296875 -21.953125 13.6875 -21.953125 C 16.863281 -21.953125 19.898438 -19.710938 21.8125 -17.1875 L 21.8125 -10.460938 C 21.8125 -4.53125 19.011719 -0.1875 14.105469 -0.1875 Z M 14.105469 -0.1875 "/></g></g></g><g fill="#00ffff" fill-opacity="1"><g transform="translate(91.065318, 42.018601)"><g><path d="M 1.867188 -11.164062 C 5.042969 -2.148438 10.460938 0.933594 17.046875 0.933594 C 22.746094 0.933594 27.511719 -2.101562 27.511719 -8.359375 C 27.511719 -14.105469 23.355469 -17 15.414062 -22.839844 C 9.621094 -27.089844 6.914062 -28.773438 6.914062 -32.414062 C 6.914062 -35.5 9.296875 -37.554688 13.3125 -37.554688 C 19.289062 -37.554688 21.71875 -32.835938 22.605469 -28.257812 L 26.34375 -29.660156 C 23.121094 -35.453125 19.058594 -38.300781 13.546875 -38.300781 C 8.128906 -38.300781 4.203125 -35.636719 4.203125 -30.78125 C 4.203125 -26.15625 7.007812 -24.007812 13.6875 -19.058594 C 20.691406 -13.730469 24.847656 -10.976562 24.847656 -6.867188 C 24.847656 -2.148438 21.625 0.1875 17.328125 0.1875 C 11.164062 0.1875 6.539062 -5.230469 5.605469 -12.984375 Z M 1.867188 -11.164062 "/></g></g></g><g fill="#00ffff" fill-opacity="1"><g transform="translate(120.439316, 42.018601)"><g><path d="M 24.894531 -8.359375 C 23.402344 -3.269531 20.273438 -0.1875 15.695312 -0.1875 C 9.714844 -0.1875 6.679688 -5.464844 6.679688 -11.304688 C 6.679688 -12.191406 6.726562 -13.078125 6.820312 -13.871094 L 24.382812 -13.871094 C 24.335938 -18.542969 20.644531 -22.980469 14.058594 -22.980469 C 7.753906 -22.980469 2.195312 -18.449219 2.195312 -11.023438 C 2.195312 -3.597656 7.613281 0.933594 14.574219 0.933594 C 20.597656 0.933594 24.054688 -2.753906 25.597656 -8.359375 Z M 14.011719 -22.234375 C 18.121094 -22.234375 20.039062 -18.871094 20.039062 -14.574219 L 6.914062 -14.574219 C 7.707031 -19.429688 10.277344 -22.234375 14.011719 -22.234375 Z M 14.011719 -22.234375 "/></g></g></g><g fill="#00ffff" fill-opacity="1"><g transform="translate(147.758531, 42.018601)"><g><path d="M 2.195312 -11.023438 C 2.195312 -3.503906 7.144531 0.933594 13.730469 0.933594 C 20.226562 0.933594 23.121094 -3.691406 24.570312 -8.5 L 23.914062 -8.5 C 22.511719 -4.015625 19.898438 -0.328125 14.992188 -0.328125 C 9.15625 -0.328125 6.679688 -5.605469 6.679688 -11.398438 C 6.679688 -18.167969 8.96875 -22.234375 14.058594 -22.234375 C 18.355469 -22.234375 19.335938 -19.105469 19.570312 -17.515625 C 19.992188 -15.320312 22.375 -14.851562 23.402344 -16.535156 C 22.375 -19.710938 19.242188 -22.980469 13.871094 -22.980469 C 7.144531 -22.980469 2.195312 -18.496094 2.195312 -11.023438 Z M 2.195312 -11.023438 "/></g></g></g><g fill="#00ffff" fill-opacity="1"><g transform="translate(174.050368, 42.018601)"><g><path d="M 19.011719 -22.046875 C 13.6875 -22.886719 10.976562 -20.085938 7.425781 -16.253906 C 7.472656 -18.03125 7.566406 -19.804688 7.800781 -22.046875 L 2.988281 -22.046875 C 3.363281 -18.542969 3.363281 -16.160156 3.363281 -13.265625 L 3.363281 -8.734375 C 3.363281 -5.886719 3.363281 -3.503906 2.988281 0 L 7.800781 0 C 7.425781 -3.503906 7.425781 -5.886719 7.425781 -8.734375 L 7.425781 -15.179688 C 11.957031 -19.804688 13.546875 -20.085938 15.789062 -19.289062 C 18.261719 -18.449219 19.523438 -19.992188 19.011719 -22.046875 Z M 19.011719 -22.046875 "/></g></g></g><g fill="#00ffff" fill-opacity="1"><g transform="translate(194.317957, 42.018601)"><g><path d="M 24.894531 -8.359375 C 23.402344 -3.269531 20.273438 -0.1875 15.695312 -0.1875 C 9.714844 -0.1875 6.679688 -5.464844 6.679688 -11.304688 C 6.679688 -12.191406 6.726562 -13.078125 6.820312 -13.871094 L 24.382812 -13.871094 C 24.335938 -18.542969 20.644531 -22.980469 14.058594 -22.980469 C 7.753906 -22.980469 2.195312 -18.449219 2.195312 -11.023438 C 2.195312 -3.597656 7.613281 0.933594 14.574219 0.933594 C 20.597656 0.933594 24.054688 -2.753906 25.597656 -8.359375 Z M 14.011719 -22.234375 C 18.121094 -22.234375 20.039062 -18.871094 20.039062 -14.574219 L 6.914062 -14.574219 C 7.707031 -19.429688 10.277344 -22.234375 14.011719 -22.234375 Z M 14.011719 -22.234375 "/></g></g></g><g fill="#00ffff" fill-opacity="1"><g transform="translate(221.637172, 42.018601)"><g><path d="M 17.46875 -9.527344 C 16.441406 -2.382812 14.804688 0.046875 12.609375 0.046875 C 10.882812 0.046875 9.902344 -1.308594 9.902344 -5.980469 L 9.902344 -21.300781 L 16.628906 -21.300781 L 16.628906 -22.046875 L 5.980469 -22.046875 C 10.183594 -23.679688 10.835938 -27.792969 10.835938 -31.714844 L 7.332031 -31.714844 C 7.332031 -26.671875 7.566406 -22.046875 1.402344 -22.046875 L 0.792969 -22.046875 L 0.792969 -21.300781 L 5.839844 -21.300781 L 5.839844 -6.492188 C 5.839844 -0.886719 7.707031 1.167969 11.304688 1.167969 C 14.804688 1.167969 16.957031 -1.214844 18.121094 -9.527344 Z M 17.46875 -9.527344 "/></g></g></g><g fill="#00ffff" fill-opacity="1"><g transform="translate(241.48447, 42.018601)"><g><path d="M 37.695312 -15.554688 C 35.636719 -6.398438 30.59375 -0.46875 22.421875 -0.46875 C 12.425781 -0.46875 7.847656 -9.25 7.847656 -19.429688 C 7.847656 -29.425781 13.03125 -37.554688 21.207031 -37.554688 C 27.136719 -37.554688 30.359375 -32.789062 31.808594 -26.855469 L 36.480469 -28.117188 C 33.304688 -34.519531 28.445312 -38.300781 21.207031 -38.300781 C 10.929688 -38.300781 2.800781 -30.5 2.800781 -19.152344 C 2.800781 -7.800781 9.621094 0.933594 21.253906 0.933594 C 30.875 0.933594 36.199219 -5.605469 38.347656 -15.554688 Z M 37.695312 -15.554688 "/></g></g></g><g fill="#00ffff" fill-opacity="1"><g transform="translate(281.692763, 42.018601)"><g><path d="M 24.054688 0 C 23.355469 -3.503906 23.355469 -5.886719 23.355469 -9.0625 L 23.355469 -16.160156 C 23.308594 -21.160156 20.039062 -22.980469 15.320312 -22.980469 C 10.695312 -22.980469 6.398438 -20.972656 3.316406 -18.824219 C 3.691406 -16.535156 6.164062 -16.207031 7.613281 -17.984375 C 8.875 -19.382812 10.277344 -22.234375 14.851562 -22.234375 C 17.796875 -22.234375 19.289062 -20.363281 19.289062 -17 C 19.289062 -14.105469 16.628906 -13.359375 12.703125 -12.703125 C 7.847656 -11.910156 2.664062 -10.371094 2.664062 -5.183594 C 2.664062 -0.933594 6.398438 0.933594 10.277344 0.933594 C 15.367188 0.933594 18.167969 -1.914062 19.289062 -5.464844 C 19.335938 -3.738281 19.429688 -2.289062 19.664062 0 Z M 12.050781 -0.46875 C 9.203125 -0.46875 7.144531 -2.289062 7.144531 -5.746094 C 7.144531 -9.25 9.25 -11.257812 13.40625 -12.144531 C 16.207031 -12.75 18.261719 -13.125 19.289062 -14.574219 L 19.289062 -9.621094 C 19.289062 -4.34375 16.441406 -0.46875 12.050781 -0.46875 Z M 12.050781 -0.46875 "/></g></g></g><g fill="#00ffff" fill-opacity="1"><g transform="translate(308.404891, 42.018601)"><g><path d="M 19.011719 -22.046875 C 13.6875 -22.886719 10.976562 -20.085938 7.425781 -16.253906 C 7.472656 -18.03125 7.566406 -19.804688 7.800781 -22.046875 L 2.988281 -22.046875 C 3.363281 -18.542969 3.363281 -16.160156 3.363281 -13.265625 L 3.363281 -8.734375 C 3.363281 -5.886719 3.363281 -3.503906 2.988281 0 L 7.800781 0 C 7.425781 -3.503906 7.425781 -5.886719 7.425781 -8.734375 L 7.425781 -15.179688 C 11.957031 -19.804688 13.546875 -20.085938 15.789062 -19.289062 C 18.261719 -18.449219 19.523438 -19.992188 19.011719 -22.046875 Z M 19.011719 -22.046875 "/></g></g></g><g fill="#00ffff" fill-opacity="1"><g transform="translate(328.672492, 42.018601)"><g><path d="M 26.625 0 C 25.875 -4.15625 25.875 -5.886719 25.875 -8.734375 L 25.875 -37.367188 L 21.300781 -37.367188 C 21.8125 -32.882812 21.8125 -31.15625 21.8125 -28.304688 L 21.8125 -18.121094 C 19.617188 -20.878906 16.394531 -22.980469 12.566406 -22.980469 C 7.285156 -22.980469 2.195312 -18.636719 2.195312 -11.023438 C 2.195312 -3.363281 6.914062 0.933594 12.890625 0.933594 C 17.796875 0.933594 20.644531 -2.054688 21.8125 -6.027344 C 21.859375 -3.96875 21.90625 -2.617188 22.234375 0 Z M 14.105469 -0.1875 C 8.78125 -0.1875 6.679688 -5.042969 6.679688 -11.023438 C 6.679688 -17.703125 9.296875 -21.953125 13.6875 -21.953125 C 16.863281 -21.953125 19.898438 -19.710938 21.8125 -17.1875 L 21.8125 -10.460938 C 21.8125 -4.53125 19.011719 -0.1875 14.105469 -0.1875 Z M 14.105469 -0.1875 "/></g></g></g><g fill="#f4f4f4" fill-opacity="1"><g transform="translate(91.590846, 42.018601)"><g><path d="M 1.867188 -11.164062 C 5.042969 -2.148438 10.460938 0.933594 17.046875 0.933594 C 22.746094 0.933594 27.511719 -2.101562 27.511719 -8.359375 C 27.511719 -14.105469 23.355469 -17 15.414062 -22.839844 C 9.621094 -27.089844 6.914062 -28.773438 6.914062 -32.414062 C 6.914062 -35.5 9.296875 -37.554688 13.3125 -37.554688 C 19.289062 -37.554688 21.71875 -32.835938 22.605469 -28.257812 L 26.34375 -29.660156 C 23.121094 -35.453125 19.058594 -38.300781 13.546875 -38.300781 C 8.128906 -38.300781 4.203125 -35.636719 4.203125 -30.78125 C 4.203125 -26.15625 7.007812 -24.007812 13.6875 -19.058594 C 20.691406 -13.730469 24.847656 -10.976562 24.847656 -6.867188 C 24.847656 -2.148438 21.625 0.1875 17.328125 0.1875 C 11.164062 0.1875 6.539062 -5.230469 5.605469 -12.984375 Z M 1.867188 -11.164062 "/></g></g></g><g fill="#f4f4f4" fill-opacity="1"><g transform="translate(120.964844, 42.018601)"><g><path d="M 24.894531 -8.359375 C 23.402344 -3.269531 20.273438 -0.1875 15.695312 -0.1875 C 9.714844 -0.1875 6.679688 -5.464844 6.679688 -11.304688 C 6.679688 -12.191406 6.726562 -13.078125 6.820312 -13.871094 L 24.382812 -13.871094 C 24.335938 -18.542969 20.644531 -22.980469 14.058594 -22.980469 C 7.753906 -22.980469 2.195312 -18.449219 2.195312 -11.023438 C 2.195312 -3.597656 7.613281 0.933594 14.574219 0.933594 C 20.597656 0.933594 24.054688 -2.753906 25.597656 -8.359375 Z M 14.011719 -22.234375 C 18.121094 -22.234375 20.039062 -18.871094 20.039062 -14.574219 L 6.914062 -14.574219 C 7.707031 -19.429688 10.277344 -22.234375 14.011719 -22.234375 Z M 14.011719 -22.234375 "/></g></g></g><g fill="#f4f4f4" fill-opacity="1"><g transform="translate(148.284059, 42.018601)"><g><path d="M 2.195312 -11.023438 C 2.195312 -3.503906 7.144531 0.933594 13.730469 0.933594 C 20.226562 0.933594 23.121094 -3.691406 24.570312 -8.5 L 23.914062 -8.5 C 22.511719 -4.015625 19.898438 -0.328125 14.992188 -0.328125 C 9.15625 -0.328125 6.679688 -5.605469 6.679688 -11.398438 C 6.679688 -18.167969 8.96875 -22.234375 14.058594 -22.234375 C 18.355469 -22.234375 19.335938 -19.105469 19.570312 -17.515625 C 19.992188 -15.320312 22.375 -14.851562 23.402344 -16.535156 C 22.375 -19.710938 19.242188 -22.980469 13.871094 -22.980469 C 7.144531 -22.980469 2.195312 -18.496094 2.195312 -11.023438 Z M 2.195312 -11.023438 "/></g></g></g><g fill="#f4f4f4" fill-opacity="1"><g transform="translate(174.575896, 42.018601)"><g><path d="M 19.011719 -22.046875 C 13.6875 -22.886719 10.976562 -20.085938 7.425781 -16.253906 C 7.472656 -18.03125 7.566406 -19.804688 7.800781 -22.046875 L 2.988281 -22.046875 C 3.363281 -18.542969 3.363281 -16.160156 3.363281 -13.265625 L 3.363281 -8.734375 C 3.363281 -5.886719 3.363281 -3.503906 2.988281 0 L 7.800781 0 C 7.425781 -3.503906 7.425781 -5.886719 7.425781 -8.734375 L 7.425781 -15.179688 C 11.957031 -19.804688 13.546875 -20.085938 15.789062 -19.289062 C 18.261719 -18.449219 19.523438 -19.992188 19.011719 -22.046875 Z M 19.011719 -22.046875 "/></g></g></g><g fill="#f4f4f4" fill-opacity="1"><g transform="translate(194.843484, 42.018601)"><g><path d="M 24.894531 -8.359375 C 23.402344 -3.269531 20.273438 -0.1875 15.695312 -0.1875 C 9.714844 -0.1875 6.679688 -5.464844 6.679688 -11.304688 C 6.679688 -12.191406 6.726562 -13.078125 6.820312 -13.871094 L 24.382812 -13.871094 C 24.335938 -18.542969 20.644531 -22.980469 14.058594 -22.980469 C 7.753906 -22.980469 2.195312 -18.449219 2.195312 -11.023438 C 2.195312 -3.597656 7.613281 0.933594 14.574219 0.933594 C 20.597656 0.933594 24.054688 -2.753906 25.597656 -8.359375 Z M 14.011719 -22.234375 C 18.121094 -22.234375 20.039062 -18.871094 20.039062 -14.574219 L 6.914062 -14.574219 C 7.707031 -19.429688 10.277344 -22.234375 14.011719 -22.234375 Z M 14.011719 -22.234375 "/></g></g></g><g fill="#f4f4f4" fill-opacity="1"><g transform="translate(222.1627, 42.018601)"><g><path d="M 17.46875 -9.527344 C 16.441406 -2.382812 14.804688 0.046875 12.609375 0.046875 C 10.882812 0.046875 9.902344 -1.308594 9.902344 -5.980469 L 9.902344 -21.300781 L 16.628906 -21.300781 L 16.628906 -22.046875 L 5.980469 -22.046875 C 10.183594 -23.679688 10.835938 -27.792969 10.835938 -31.714844 L 7.332031 -31.714844 C 7.332031 -26.671875 7.566406 -22.046875 1.402344 -22.046875 L 0.792969 -22.046875 L 0.792969 -21.300781 L 5.839844 -21.300781 L 5.839844 -6.492188 C 5.839844 -0.886719 7.707031 1.167969 11.304688 1.167969 C 14.804688 1.167969 16.957031 -1.214844 18.121094 -9.527344 Z M 17.46875 -9.527344 "/></g></g></g><g fill="#f4f4f4" fill-opacity="1"><g transform="translate(242.009998, 42.018601)"><g><path d="M 37.695312 -15.554688 C 35.636719 -6.398438 30.59375 -0.46875 22.421875 -0.46875 C 12.425781 -0.46875 7.847656 -9.25 7.847656 -19.429688 C 7.847656 -29.425781 13.03125 -37.554688 21.207031 -37.554688 C 27.136719 -37.554688 30.359375 -32.789062 31.808594 -26.855469 L 36.480469 -28.117188 C 33.304688 -34.519531 28.445312 -38.300781 21.207031 -38.300781 C 10.929688 -38.300781 2.800781 -30.5 2.800781 -19.152344 C 2.800781 -7.800781 9.621094 0.933594 21.253906 0.933594 C 30.875 0.933594 36.199219 -5.605469 38.347656 -15.554688 Z M 37.695312 -15.554688 "/></g></g></g><g fill="#f4f4f4" fill-opacity="1"><g transform="translate(282.218291, 42.018601)"><g><path d="M 24.054688 0 C 23.355469 -3.503906 23.355469 -5.886719 23.355469 -9.0625 L 23.355469 -16.160156 C 23.308594 -21.160156 20.039062 -22.980469 15.320312 -22.980469 C 10.695312 -22.980469 6.398438 -20.972656 3.316406 -18.824219 C 3.691406 -16.535156 6.164062 -16.207031 7.613281 -17.984375 C 8.875 -19.382812 10.277344 -22.234375 14.851562 -22.234375 C 17.796875 -22.234375 19.289062 -20.363281 19.289062 -17 C 19.289062 -14.105469 16.628906 -13.359375 12.703125 -12.703125 C 7.847656 -11.910156 2.664062 -10.371094 2.664062 -5.183594 C 2.664062 -0.933594 6.398438 0.933594 10.277344 0.933594 C 15.367188 0.933594 18.167969 -1.914062 19.289062 -5.464844 C 19.335938 -3.738281 19.429688 -2.289062 19.664062 0 Z M 12.050781 -0.46875 C 9.203125 -0.46875 7.144531 -2.289062 7.144531 -5.746094 C 7.144531 -9.25 9.25 -11.257812 13.40625 -12.144531 C 16.207031 -12.75 18.261719 -13.125 19.289062 -14.574219 L 19.289062 -9.621094 C 19.289062 -4.34375 16.441406 -0.46875 12.050781 -0.46875 Z M 12.050781 -0.46875 "/></g></g></g><g fill="#f4f4f4" fill-opacity="1"><g transform="translate(308.930418, 42.018601)"><g><path d="M 19.011719 -22.046875 C 13.6875 -22.886719 10.976562 -20.085938 7.425781 -16.253906 C 7.472656 -18.03125 7.566406 -19.804688 7.800781 -22.046875 L 2.988281 -22.046875 C 3.363281 -18.542969 3.363281 -16.160156 3.363281 -13.265625 L 3.363281 -8.734375 C 3.363281 -5.886719 3.363281 -3.503906 2.988281 0 L 7.800781 0 C 7.425781 -3.503906 7.425781 -5.886719 7.425781 -8.734375 L 7.425781 -15.179688 C 11.957031 -19.804688 13.546875 -20.085938 15.789062 -19.289062 C 18.261719 -18.449219 19.523438 -19.992188 19.011719 -22.046875 Z M 19.011719 -22.046875 "/></g></g></g><g fill="#f4f4f4" fill-opacity="1"><g transform="translate(329.19802, 42.018601)"><g><path d="M 26.625 0 C 25.875 -4.15625 25.875 -5.886719 25.875 -8.734375 L 25.875 -37.367188 L 21.300781 -37.367188 C 21.8125 -32.882812 21.8125 -31.15625 21.8125 -28.304688 L 21.8125 -18.121094 C 19.617188 -20.878906 16.394531 -22.980469 12.566406 -22.980469 C 7.285156 -22.980469 2.195312 -18.636719 2.195312 -11.023438 C 2.195312 -3.363281 6.914062 0.933594 12.890625 0.933594 C 17.796875 0.933594 20.644531 -2.054688 21.8125 -6.027344 C 21.859375 -3.96875 21.90625 -2.617188 22.234375 0 Z M 14.105469 -0.1875 C 8.78125 -0.1875 6.679688 -5.042969 6.679688 -11.023438 C 6.679688 -17.703125 9.296875 -21.953125 13.6875 -21.953125 C 16.863281 -21.953125 19.898438 -19.710938 21.8125 -17.1875 L 21.8125 -10.460938 C 21.8125 -4.53125 19.011719 -0.1875 14.105469 -0.1875 Z M 14.105469 -0.1875 "/></g></g></g></svg>