<svg xmlns="http://www.w3.org/2000/svg" xmlns:xlink="http://www.w3.org/1999/xlink" width="500" zoomAndPan="magnify" viewBox="0 0 375 195.000001" height="260" preserveAspectRatio="xMidYMid meet" version="1.0"><defs><g/></defs><path fill="#000000" d="M 20.355469 18.65625 L 20.355469 175.347656 L 178.546875 175.347656 L 178.546875 18.65625 L 20.355469 18.65625 M 174.226562 171.027344 L 24.585938 171.027344 L 24.585938 22.886719 L 174.226562 22.886719 L 174.226562 171.027344 " fill-opacity="1" fill-rule="nonzero"/><path fill="#000000" d="M 196.433594 18.65625 L 196.433594 175.347656 L 354.625 175.347656 L 354.625 18.65625 L 196.433594 18.65625 M 350.304688 171.027344 L 200.664062 171.027344 L 200.664062 22.886719 L 350.304688 22.886719 L 350.304688 171.027344 " fill-opacity="1" fill-rule="nonzero"/><path fill="#f4f4f4" d="M 26.03125 23.644531 L 172.28125 23.644531 L 172.28125 169.894531 L 26.03125 169.894531 L 26.03125 23.644531 " fill-opacity="1" fill-rule="nonzero"/><g fill="#ff00ff" fill-opacity="1"><g transform="translate(44.010966, 153.888859)"><g><path d="M 5.769531 -32.894531 C 20.054688 -6.636719 37.800781 2.886719 62.472656 2.886719 C 82.097656 2.886719 99.121094 -6.925781 99.121094 -27.992188 C 99.121094 -48.480469 84.980469 -58 56.269531 -76.324219 C 34.050781 -90.320312 28.710938 -94.503906 28.710938 -102.296875 C 28.710938 -109.222656 35.058594 -114.847656 46.027344 -114.847656 C 64.925781 -114.847656 72.285156 -97.96875 77.191406 -81.230469 L 97.246094 -89.886719 C 82.527344 -110.519531 66.945312 -118.3125 47.757812 -118.3125 C 28.710938 -118.3125 12.40625 -109.507812 12.40625 -91.617188 C 12.40625 -75.171875 22.21875 -66.65625 47.324219 -50.066406 C 71.417969 -34.050781 82.816406 -26.835938 82.816406 -16.59375 C 82.816406 -6.78125 76.179688 -0.578125 64.636719 -0.578125 C 45.304688 -0.578125 31.597656 -19.621094 25.96875 -44.582031 Z M 5.769531 -32.894531 "/></g></g></g><g fill="#00ffff" fill-opacity="1"><g transform="translate(39.321646, 153.888859)"><g><path d="M 5.769531 -32.894531 C 20.054688 -6.636719 37.800781 2.886719 62.472656 2.886719 C 82.097656 2.886719 99.121094 -6.925781 99.121094 -27.992188 C 99.121094 -48.480469 84.980469 -58 56.269531 -76.324219 C 34.050781 -90.320312 28.710938 -94.503906 28.710938 -102.296875 C 28.710938 -109.222656 35.058594 -114.847656 46.027344 -114.847656 C 64.925781 -114.847656 72.285156 -97.96875 77.191406 -81.230469 L 97.246094 -89.886719 C 82.527344 -110.519531 66.945312 -118.3125 47.757812 -118.3125 C 28.710938 -118.3125 12.40625 -109.507812 12.40625 -91.617188 C 12.40625 -75.171875 22.21875 -66.65625 47.324219 -50.066406 C 71.417969 -34.050781 82.816406 -26.835938 82.816406 -16.59375 C 82.816406 -6.78125 76.179688 -0.578125 64.636719 -0.578125 C 45.304688 -0.578125 31.597656 -19.621094 25.96875 -44.582031 Z M 5.769531 -32.894531 "/></g></g></g><g fill="#000000" fill-opacity="1"><g transform="translate(41.666307, 153.888859)"><g><path d="M 5.769531 -32.894531 C 20.054688 -6.636719 37.800781 2.886719 62.472656 2.886719 C 82.097656 2.886719 99.121094 -6.925781 99.121094 -27.992188 C 99.121094 -48.480469 84.980469 -58 56.269531 -76.324219 C 34.050781 -90.320312 28.710938 -94.503906 28.710938 -102.296875 C 28.710938 -109.222656 35.058594 -114.847656 46.027344 -114.847656 C 64.925781 -114.847656 72.285156 -97.96875 77.191406 -81.230469 L 97.246094 -89.886719 C 82.527344 -110.519531 66.945312 -118.3125 47.757812 -118.3125 C 28.710938 -118.3125 12.40625 -109.507812 12.40625 -91.617188 C 12.40625 -75.171875 22.21875 -66.65625 47.324219 -50.066406 C 71.417969 -34.050781 82.816406 -26.835938 82.816406 -16.59375 C 82.816406 -6.78125 76.179688 -0.578125 64.636719 -0.578125 C 45.304688 -0.578125 31.597656 -19.621094 25.96875 -44.582031 Z M 5.769531 -32.894531 "/></g></g></g><g fill="#ff00ff" fill-opacity="1"><g transform="translate(148.848791, 153.888859)"><g/></g></g><g fill="#00ffff" fill-opacity="1"><g transform="translate(144.159471, 153.888859)"><g/></g></g><g fill="#000000" fill-opacity="1"><g transform="translate(146.504133, 153.888859)"><g/></g></g><path fill="#f4f4f4" d="M 202.261719 23.738281 L 348.511719 23.738281 L 348.511719 169.988281 L 202.261719 169.988281 L 202.261719 23.738281 " fill-opacity="1" fill-rule="nonzero"/><g fill="#ff00ff" fill-opacity="1"><g transform="translate(211.343338, 153.888859)"><g><path d="M 124.949219 -49.632812 C 118.167969 -20.34375 101.574219 -5.769531 80.21875 -5.769531 C 52.664062 -5.769531 40.6875 -30.445312 40.6875 -61.175781 C 40.6875 -90.898438 51.074219 -114.847656 70.84375 -114.847656 C 85.992188 -114.847656 93.351562 -98.398438 96.089844 -75.746094 L 123.503906 -83.394531 C 113.550781 -104.605469 96.234375 -118.3125 70.84375 -118.3125 C 37.082031 -118.3125 8.65625 -96.667969 8.65625 -59.15625 C 8.65625 -21.640625 33.617188 2.886719 71.5625 2.886719 C 102.441406 2.886719 120.042969 -16.738281 127.976562 -49.632812 Z M 124.949219 -49.632812 "/></g></g></g><g fill="#00ffff" fill-opacity="1"><g transform="translate(206.654016, 153.888859)"><g><path d="M 124.949219 -49.632812 C 118.167969 -20.34375 101.574219 -5.769531 80.21875 -5.769531 C 52.664062 -5.769531 40.6875 -30.445312 40.6875 -61.175781 C 40.6875 -90.898438 51.074219 -114.847656 70.84375 -114.847656 C 85.992188 -114.847656 93.351562 -98.398438 96.089844 -75.746094 L 123.503906 -83.394531 C 113.550781 -104.605469 96.234375 -118.3125 70.84375 -118.3125 C 37.082031 -118.3125 8.65625 -96.667969 8.65625 -59.15625 C 8.65625 -21.640625 33.617188 2.886719 71.5625 2.886719 C 102.441406 2.886719 120.042969 -16.738281 127.976562 -49.632812 Z M 124.949219 -49.632812 "/></g></g></g><g fill="#000000" fill-opacity="1"><g transform="translate(208.998677, 153.888859)"><g><path d="M 124.949219 -49.632812 C 118.167969 -20.34375 101.574219 -5.769531 80.21875 -5.769531 C 52.664062 -5.769531 40.6875 -30.445312 40.6875 -61.175781 C 40.6875 -90.898438 51.074219 -114.847656 70.84375 -114.847656 C 85.992188 -114.847656 93.351562 -98.398438 96.089844 -75.746094 L 123.503906 -83.394531 C 113.550781 -104.605469 96.234375 -118.3125 70.84375 -118.3125 C 37.082031 -118.3125 8.65625 -96.667969 8.65625 -59.15625 C 8.65625 -21.640625 33.617188 2.886719 71.5625 2.886719 C 102.441406 2.886719 120.042969 -16.738281 127.976562 -49.632812 Z M 124.949219 -49.632812 "/></g></g></g></svg>